<svg xmlns:xlink="http://www.w3.org/1999/xlink" width="40"  viewBox="0 0 40 26" fill="none" xmlns="http://www.w3.org/2000/svg" font-size="24px" height="26" ><path d="M14.5 6H38.5" stroke="#CCCCCC" stroke-width="2.5px" stroke-linecap="round" stroke-linejoin="round" fill="none"></path><path d="M14.5 11H38.5" stroke="#CCCCCC" stroke-width="2.5px" stroke-linecap="round" stroke-linejoin="round" fill="none"></path><path d="M14.5 16H38.5" stroke="#CCCCCC" stroke-width="2.5px" stroke-linecap="round" stroke-linejoin="round" fill="none"></path><path d="M14.5 21H38.5" stroke="#505050" stroke-width="2.5px" stroke-linecap="round" stroke-linejoin="round" fill="none"></path><path d="M5.71207 24.3366L8.13685 25.9343C8.4468 26.1386 8.83162 25.8348 8.73965 25.4585L8.03908 22.5924C8.01935 22.5126 8.02168 22.4286 8.04582 22.3501C8.06995 22.2716 8.1149 22.2017 8.1755 22.1486L10.3499 20.2664C10.6356 20.0191 10.4881 19.526 10.1211 19.5012L7.28145 19.3096C7.20496 19.3039 7.1316 19.2757 7.06991 19.2284C7.00822 19.181 6.96074 19.1164 6.93299 19.042L5.87393 16.2684C5.84515 16.1895 5.79396 16.1215 5.72717 16.0736C5.66038 16.0257 5.58115 16 5.5 16C5.41885 16 5.33962 16.0257 5.27283 16.0736C5.20604 16.1215 5.15485 16.1895 5.12607 16.2684L4.06701 19.042C4.03926 19.1164 3.99178 19.181 3.93009 19.2284C3.8684 19.2757 3.79504 19.3039 3.71855 19.3096L0.878944 19.5012C0.511873 19.526 0.364409 20.0191 0.650114 20.2664L2.8245 22.1486C2.8851 22.2017 2.93005 22.2716 2.95418 22.3501C2.97832 22.4286 2.98065 22.5126 2.96092 22.5924L2.31122 25.2504C2.20085 25.702 2.66264 26.0664 3.03458 25.8214L5.28793 24.3366C5.35131 24.2947 5.42487 24.2724 5.5 24.2724C5.57513 24.2724 5.64869 24.2947 5.71207 24.3366Z" fill="#505050"></path></svg>